# AST/ASF file generated using VICON BodyLanguage
# -----------------------------------------------
:version 1.10
:name VICON
:units
  mass 1.0
  length 0.45
  angle deg
:documentation
   .ast/.asf automatically generated from VICON data using
   VICON BodyBuilder and BodyLanguage model FoxedUp or BRILLIANT.MOD
:root
   order TX TY TZ RX RY RZ
   axis XYZ
   position 0 0 0  
   orientation 0 0 0 
:bonedata
  begin
     id 1 
     name lhipjoint
     direction 0.623529 -0.717805 0.309788 
     length 2.23224 
     axis 0 0 0  XYZ
  end
  begin
     id 2 
     name lfemur
     direction 0.34202 -0.939693 0  
     length 7.11402  
     axis 0 0 20  XYZ
    dof rx ry rz
    limits (-160.0 20.0)
           (-70.0 70.0)
           (-60.0 70.0)
  end
  begin
     id 3 
     name ltibia
     direction 0.34202 -0.939693 0   
     length 6.78496   
     axis 0 0 20   XYZ
    dof rx
    limits (-10.0 170.0)
  end
  begin
     id 4 
     name lfoot
     direction 0.125078 -0.343648 0.930732   
     length 1.84054   
     axis -90 7.62852e-016 20   XYZ
    dof rx rz
    limits (-45.0 90.0)
           (-70.0 20.0)
  end
  begin
     id 5 
     name ltoes
     direction 1.53565e-011 -4.21893e-011 1   
     length 0.916474   
     axis -90 7.62852e-016 20   XYZ
    dof rx
    limits (-90.0 20.0)
  end
  begin
     id 6 
     name rhipjoint
     direction -0.564688 -0.757748 0.327026   
     length 2.11457  
     axis 0 0 0  XYZ 
  end
  begin
     id 7 
     name rfemur
     direction -0.34202 -0.939693 0   
     length 7.14609   
     axis 0 0 -20   XYZ
    dof rx ry rz
    limits (-160.0 20.0)
           (-70.0 70.0)
           (-70.0 60.0)
  end
  begin
     id 8 
     name rtibia
     direction -0.34202 -0.939693 0   
     length 6.78101   
     axis 0 0 -20   XYZ
    dof rx
    limits (-10.0 170.0)
 end
 begin
     id 9 
     name rfoot
     direction -0.0992671 -0.272734 0.956955   
     length 1.96168  
     axis -90 -7.62852e-016 -20   XYZ
    dof rx rz
    limits (-45.0 90.0)
           (-20.0 70.0)
  end
  begin
     id 10 
     name rtoes
     direction -1.5356e-011 -4.21891e-011 1   
     length 0.982933   
     axis -90 -7.62852e-016 -20   XYZ
    dof rx
    limits (-90.0 20.0)
  end
  begin
     id 11 
     name lowerback
     direction -0.00596953 0.998668 0.0512524   
     length 1.87557   
     axis 0 0 0   XYZ
    dof rx ry rz
    limits (-20.0 45.0)
           (-30.0 30.0)
           (-30.0 30.0)
  end
  begin
     id 12 
     name upperback
     direction 0.00584879 0.999652 0.0257308   
     length 1.87883   
     axis 0 0 0   XYZ
    dof rx ry rz
    limits (-20.0 45.0)
           (-30.0 30.0)
           (-30.0 30.0)
  end
  begin
     id 13 
     name thorax
     direction 0.010104 0.999947 0.00178881   
     length 1.87779   
     axis 0 0 0   XYZ
    dof rx ry rz
    limits (-20.0 45.0)
           (-30.0 30.0)
           (-30.0 30.0)
  end
  begin
     id 14 
     name lowerneck
     direction 0.0120771 0.995934 -0.0892773   
     length 1.40897   
     axis 0 0 0   XYZ
    dof rx ry rz
    limits (-20.0 45.0)
           (-30.0 30.0)
           (-30.0 30.0)
  end
  begin
     id 15 
     name upperneck
     direction -0.030568 0.999465 -0.0116366   
     length 1.38661   
     axis 0 0 0   XYZ
    dof rx ry rz
    limits (-20.0 45.0)
           (-30.0 30.0)
           (-30.0 30.0)
  end
  begin
     id 16
     name head
     direction -0.0170715 0.999854 -0.00104426  
     length 1.47052  
     axis 0 0 0   XYZ
    dof rx ry rz
    limits (-20.0 45.0)
           (-30.0 30.0)
           (-30.0 30.0)
  end
  begin
     id 17 
     name lclavicle
     direction 0.977763 0.206143 0.038532  
     length 3.02424  
     axis 0 0 0   XYZ
    dof ry rz
    limits (-20.0 10.0)
           (0.0 20.0)
  end
  begin
     id 18 
     name lhumerus
     direction 1 -4.48965e-011 -2.62654e-027   
     length 4.68382   
     axis 180 -30 -90   XYZ
    dof rx ry rz
    limits (-60.0 90.0)
           (-90.0 90.0)
           (-90.0 90.0)
  end
  begin
     id 19
     name lradius
     direction 1 -4.48973e-011 -1.54954e-027   
     length 2.98124   
     axis 180 -30 -90   XYZ
    dof rx
    limits (-10.0 170.0)
  end
  begin
     id 20
     name lwrist
     direction 1 -4.48959e-011 7.20928e-028   
     length 1.49062   
     axis -5.52449e-016 90 90   XYZ
    dof ry
    limits (-180.0 0.0)
 end
  begin
     id 21 
     name lhand
     direction 1 -4.48971e-011 1.44186e-027   
     length 0.707595   
     axis -9.20027e-016 90 90   XYZ
    dof rx rz
    limits (-90.0 90.0)
           (-45.0 45.0)
  end
  begin
     id 22 
     name lfingers
     direction 1 -4.48985e-011 2.88371e-027   
     length 0.570481   
     axis -1.84005e-015 90 90   XYZ
    dof rx
    limits (0.0 90.0)
  end
  begin
     id 23
     name lthumb
     direction 0.707107 -6.34929e-011 0.707107   
     length 0.819101   
     axis -90 45 2.85299e-015   XYZ
    dof rx rz
    limits (-45.0 45.0)
           (-45.0 45.0)
  end
  begin
     id 24 
     name rclavicle
     direction -0.958661 0.284411 -0.00895327   
     length 3.11921  
     axis 0 0 0   XYZ 
    dof ry rz
    limits (-10.0 20.0)
           (-20.0 0.0)
  end
  begin
     id 25 
     name rhumerus
     direction -1 -4.48963e-011 -4.22193e-027  
     length 4.75876   
     axis 180 30 90   XYZ
    dof rx ry rz
    limits (-90.0 60.0)
           (-90.0 90.0)
           (-90.0 90.0)
  end
  begin
     id 26 
     name rradius
     direction -1 -4.48968e-011 -1.07616e-027   
     length 2.93293   
     axis 180 30 90   XYZ
    dof rx
    limits (-10.0 170.0)
  end
  begin
     id 27 
     name rwrist
     direction -1 -4.48965e-011 7.20928e-028   
     length 1.46647   
     axis -5.52449e-016 -90 -90   XYZ
    dof ry
    limits (-180.0 0.0)
  end
  begin
     id 28
     name rhand
     direction -1 -4.48971e-011 1.44186e-027   
     length 0.831748   
     axis -9.20027e-016 -90 -90   XYZ
    dof rx rz
    limits (-90.0 90.0)
           (-45.0 45.0)
  end
  begin
     id 29
     name rfingers
     direction -1 -4.48961e-011 2.88371e-027   
     length 0.670577   
     axis -1.84005e-015 -90 -90   XYZ
    dof rx
    limits (0.0 90.0)
  end
  begin
     id 30
     name rthumb
     direction -0.707107 -6.34929e-011 0.707107   
     length 0.962818   
     axis -90 -45 -2.85299e-015   XYZ
    dof rx rz
    limits (-45.0 45.0)
           (-45.0 45.0)
  end
:hierarchy
  begin
    root lhipjoint rhipjoint lowerback
    lhipjoint lfemur
    lfemur ltibia
    ltibia lfoot
    lfoot ltoes
    rhipjoint rfemur
    rfemur rtibia
    rtibia rfoot
    rfoot rtoes
    lowerback upperback
    upperback thorax
    thorax lowerneck lclavicle rclavicle
    lowerneck upperneck
    upperneck head
    lclavicle lhumerus
    lhumerus lradius
    lradius lwrist
    lwrist lhand lthumb
    lhand lfingers
    rclavicle rhumerus
    rhumerus rradius
    rradius rwrist
    rwrist rhand rthumb
    rhand rfingers
  end

#!OML:ASF E:\id_vita\Project 1\Capture day 1\Session 1\Female.ASF
:FULLY-SPECIFIED
:DEGREES
222
root -3.62144 16.2626 0.332982 393.154 86.7589 375.311
lowerback -12.6103 -2.05271 -5.18792
upperback -3.26749 -1.98306 1.03762
thorax 3.84315 -0.966335 3.70667
lowerneck -1.1136 0.697474 -2.86092
upperneck 15.6871 0.730334 5.0923
head 4.84349 0.622198 2.09755
rclavicle -2.77615e-014 -4.82053e-015
rhumerus -62.5762 -39.5392 -40.4808
rradius 13.2023
rwrist 44.6326
rhand -14.0337 6.36701
rfingers 7.12502
rthumb 12.0966 -23.2633
lclavicle -2.77615e-014 -4.82053e-015
lhumerus -10.9304 8.31807 89.8211
lradius 39.1901
lwrist -14.3663
lhand -9.40141 22.1162
lfingers 7.12502
lthumb 16.56 51.4296
rfemur -46.8814 6.54703 17.2429
rtibia 27.4722
rfoot -6.80416 -5.87363
rtoes -10.6177
lfemur -14.5091 -7.86894 -27.4335
ltibia 25.1141
lfoot -25.8403 5.73719
ltoes 5.0054
223
root -3.44994 16.2436 0.338161 396.296 86.6646 378.56
lowerback -12.5032 -2.06466 -5.41974
upperback -3.27051 -1.97476 1.00521
thorax 3.78642 -0.962481 3.80744
lowerneck -1.0899 0.69537 -2.98299
upperneck 15.6673 0.723515 5.17566
head 4.83234 0.616438 2.14316
rclavicle 7.41715e-015 9.24349e-015
rhumerus -62.6888 -39.0509 -40.5991
rradius 13.352
rwrist 43.8915
rhand -14.3149 6.72657
rfingers 7.12502
rthumb 11.8254 -22.9196
lclavicle 7.41715e-015 9.24349e-015
lhumerus -10.4134 8.03197 89.8886
lradius 38.8549
lwrist -14.6822
lhand -9.26506 22.0973
lfingers 7.12502
lthumb 16.6913 51.3997
rfemur -46.6014 6.58568 17.1052
rtibia 24.4132
rfoot -6.87194 -5.20257
rtoes -10.8025
lfemur -13.3934 -7.95818 -27.7588
ltibia 24.4975
lfoot -25.7261 5.53435
ltoes 5.87162
224
root -3.27904 16.2243 0.344448 399.973 86.7378 382.326
lowerback -12.3929 -2.14278 -5.60751
upperback -3.28625 -2.05971 0.96339
thorax 3.72304 -1.00366 3.85841
lowerneck -0.994292 0.681027 -2.90953
upperneck 15.5734 0.704105 5.1419
head 4.78882 0.606881 2.11765
rclavicle -3.49923e-014 -1.81888e-014
rhumerus -62.9629 -38.6649 -40.5276
rradius 13.3988
rwrist 43.4671
rhand -14.6438 7.2644
rfingers 7.12502
rthumb 11.5083 -22.3997
lclavicle -3.49923e-014 -1.81888e-014
lhumerus -9.8796 7.88377 89.9096
lradius 38.4001
lwrist -15.1219
lhand -9.18604 21.9898
lfingers 7.12502
lthumb 16.7673 51.2857
rfemur -46.2695 6.69417 16.9007
rtibia 21.3308
rfoot -6.73074 -4.66968
rtoes -10.5523
lfemur -12.2965 -8.04516 -27.9653
ltibia 23.8756
lfoot -25.6877 4.89492
ltoes 6.95678
225
root -3.11044 16.2019 0.349676 402.997 86.9491 385.508
lowerback -12.4627 -2.30005 -5.66899
upperback -3.12091 -2.25913 0.98128
thorax 3.95984 -1.11556 3.87519
lowerneck -1.02027 0.710922 -2.90737
upperneck 15.3536 0.742991 5.13281
head 4.7242 0.620329 2.11316
rclavicle 1.9776e-014 1.48592e-014
rhumerus -63.4661 -38.8842 -39.683
rradius 13.2626
rwrist 44.0936
rhand -15.1292 8.10387
rfingers 7.12502
rthumb 11.0401 -21.5858
lclavicle 1.9776e-014 1.48592e-014
lhumerus -9.20829 8.02332 89.9556
lradius 37.9878
lwrist -15.524
lhand -9.13145 21.8187
lfingers 7.12502
lthumb 16.8199 51.1102
rfemur -45.8172 7.09249 16.5397
rtibia 18.3271
rfoot -6.53341 -4.71038
rtoes -10.7314
lfemur -11.0897 -8.07858 -28.0515
ltibia 23.1569
lfoot -25.4117 4.22842
ltoes 7.28326
226
root -2.93735 16.1803 0.360571 405.816 87.1672 388.609
lowerback -10.3531 -2.29312 -6.1327
upperback -4.34146 -2.34245 1.28811
thorax 1.56354 -1.0458 4.52272
lowerneck -0.715063 0.573222 -3.20526
upperneck 16.4851 0.588307 5.11738
head 5.02624 0.551896 2.16598
rclavicle -1.11972e-014 -2.127e-014
rhumerus -64.4537 -36.3874 -39.6681
rradius 13.6616
rwrist 42.2313
rhand -15.3046 8.0395
rfingers 7.12502
rthumb 10.8709 -21.6591
lclavicle -1.11972e-014 -2.127e-014
lhumerus -10.9084 7.92487 90.3189
lradius 37.8986
lwrist -15.8382
lhand -9.07467 21.8151
lfingers 7.12502
lthumb 16.8746 51.102
rfemur -45.1742 7.73719 16.0494
rtibia 15.4419
rfoot -6.36809 -5.22556
rtoes -11.2232
lfemur -9.71312 -7.84356 -28.1434
ltibia 22.3749
lfoot -25.0109 3.84194
ltoes 6.27517
227
root -2.75641 16.1638 0.378386 411.849 87.3421 395.059
lowerback -9.59796 -2.37941 -6.56266
upperback -4.50979 -2.47517 1.35472
thorax 1.00771 -1.08519 4.84435
lowerneck -0.827266 0.565477 -3.32793
upperneck 16.8924 0.571594 5.24815
head 5.17034 0.554154 2.23357
rclavicle -4.56894e-014 2.98177e-016
rhumerus -64.2134 -35.1956 -40.8142
rradius 13.9886
rwrist 40.4511
rhand -15.2757 7.46375
rfingers 7.12502
rthumb 10.8988 -22.2334
lclavicle -4.56894e-014 2.98177e-016
lhumerus -11.0924 7.76515 90.4298
lradius 37.5992
lwrist -16.2056
lhand -9.10644 22.2277
lfingers 7.12502
lthumb 16.844 51.5172
rfemur -44.3383 8.77492 15.0998
rtibia 12.695
rfoot -5.75028 -6.37229
rtoes -11.1356
lfemur -8.15068 -7.4762 -28.3191
ltibia 21.5599
lfoot -24.9436 3.06548
ltoes 5.52947
228
root -2.57344 16.1488 0.394671 417.284 87.4116 400.777
lowerback -11.7419 -2.65077 -6.34072
upperback -2.81762 -2.69524 0.929458
thorax 3.95753 -1.35171 4.14359
lowerneck -1.4963 0.799615 -2.9687
upperneck 15.648 0.816842 5.50875
head 4.88818 0.683561 2.25102
rclavicle 4.57205e-015 -2.2413e-014
rhumerus -63.3271 -37.8787 -40.8667
rradius 13.6138
rwrist 42.1718
rhand -15.4226 7.77848
rfingers 7.12502
rthumb 10.7571 -21.9261
lclavicle 4.57205e-015 -2.2413e-014
lhumerus -8.32189 7.85673 89.896
lradius 36.8428
lwrist -16.6644
lhand -9.454 22.2732
lfingers 7.12502
lthumb 16.5094 51.5908
rfemur -43.6403 10.2955 13.7358
rtibia 10.0621
rfoot -4.89406 -8.09266
rtoes -10.0836
lfemur -6.72754 -7.47615 -28.4308
ltibia 20.7327
lfoot -24.8482 1.93761
ltoes 6.41609
229
root -2.39032 16.1291 0.405436 419.65 87.404 403.195
lowerback -11.7536 -2.683 -6.53601
upperback -2.79093 -2.71454 0.951889
thorax 4.00396 -1.36551 4.2736
lowerneck -1.70583 0.710289 -2.82913
upperneck 15.7292 0.710662 5.32077
head 4.95577 0.630504 2.16701
rclavicle 6.47914e-014 -9.64106e-015
rhumerus -63.7799 -38.1203 -40.1158
rradius 13.5091
rwrist 42.6172
rhand -15.3857 8.44446
rfingers 7.12502
rthumb 10.7927 -21.2583
lclavicle 6.47914e-014 -9.64106e-015
lhumerus -8.0106 8.12274 90.0519
lradius 36.2044
lwrist -17.2433
lhand -9.87357 21.392
lfingers 7.12502
lthumb 16.1054 50.7428
rfemur -42.9274 10.234 13.8966
rtibia 7.46749
rfoot -4.6875 -7.77792
rtoes -9.44196
lfemur -5.58844 -7.57455 -28.5267
ltibia 19.978
lfoot -24.4193 1.3866
ltoes 5.95499
230
root -2.20558 16.1045 0.415581 422.437 87.5042 406.019
lowerback -11.8156 -2.68192 -6.55597
upperback -2.84087 -2.70526 0.95916
thorax 3.98553 -1.35808 4.29315
lowerneck -1.63402 0.590538 -2.95952
upperneck 15.7161 0.550527 5.37089
head 4.9455 0.547537 2.19657
rclavicle -2.40343e-014 1.48592e-014
rhumerus -63.9573 -37.8666 -40.1694
rradius 13.5897
rwrist 42.2157
rhand -15.3403 8.69031
rfingers 7.12502
rthumb 10.8365 -21.0101
lclavicle -2.40343e-014 1.48592e-014
lhumerus -7.97618 8.10531 90.1578
lradius 35.6325
lwrist -17.6164
lhand -9.7585 21.3721
lfingers 7.12502
lthumb 16.2162 50.7139
rfemur -42.0457 10.0499 14.0904
rtibia 4.58604
rfoot -2.71652 -7.36762
rtoes -11.0914
lfemur -4.54087 -7.45835 -28.5594
ltibia 19.4275
lfoot -24.0816 1.14012
ltoes 3.86871
231
root -2.01925 16.0803 0.428398 425.442 87.6657 409.011
lowerback -11.8322 -2.75667 -6.65349
upperback -2.93408 -2.7962 1.07912
thorax 3.91802 -1.39856 4.4616
lowerneck -1.56801 0.603005 -3.26955
upperneck 15.7499 0.566504 5.52816
head 4.94144 0.547724 2.29828
rclavicle -1.32207e-014 -8.1129e-015
rhumerus -64.3748 -37.8198 -39.5902
rradius 13.5825
rwrist 42.4673
rhand -15.461 8.90012
rfingers 7.12502
rthumb 10.7201 -20.8064
lclavicle -1.32207e-014 -8.1129e-015
lhumerus -8.08108 8.25132 90.3016
lradius 35.1207
lwrist -18.011
lhand -9.50798 22.0399
lfingers 7.12502
lthumb 16.4574 51.3618
rfemur -40.2686 9.78772 14.3004
rtibia 1.59028e-014
rfoot -0.313053 -6.51565
rtoes -14.2082
lfemur -3.68535 -7.31084 -28.4855
ltibia 19.1448
lfoot -23.9343 0.738263
ltoes 2.97996
232
root -1.82851 16.059 0.440453 429.689 87.727 413.185
lowerback -10.4608 -2.75735 -6.94075
upperback -4.04369 -2.87454 1.28131
thorax 2.0329 -1.33345 4.89431
lowerneck -0.98316 0.56463 -3.39191
upperneck 16.5369 0.552928 5.36361
head 5.08644 0.540455 2.27509
rclavicle -3.20633e-014 -8.94531e-016
rhumerus -66.0761 -36.6568 -37.9934
rradius 13.659
rwrist 42.7833
rhand -15.4471 9.12845
rfingers 7.12502
rthumb 10.7335 -20.5773
lclavicle -3.20633e-014 -8.94531e-016
lhumerus -9.79475 8.63418 90.5386
lradius 34.7126
lwrist -18.5357
lhand -9.55932 22.2269
lfingers 7.12502
lthumb 16.408 51.5529
rfemur -40.6183 9.63751 14.5164
rtibia -3.49861e-014
rfoot -0.995997 -7.50236
rtoes -10.1726
lfemur -3.02766 -7.1471 -28.5053
ltibia 19.0767
lfoot -23.7507 0.334327
ltoes 2.47585
233
root -1.6337 16.0412 0.451009 436.572 87.9233 419.993
lowerback -12.2008 -2.93802 -6.64487
upperback -2.99427 -3.00764 1.10585
thorax 4.08527 -1.50392 4.4387
lowerneck -1.20254 0.655188 -3.21745
upperneck 15.4643 0.643745 5.45482
head 4.78904 0.576791 2.26365
rclavicle -2.54802e-014 -7.11898e-015
rhumerus -66.4963 -39.2194 -36.3901
rradius 13.3491
rwrist 45.2255
rhand -15.439 9.11983
rfingers 7.12502
rthumb 10.7413 -20.5856
lclavicle -2.54802e-014 -7.11898e-015
lhumerus -8.10835 8.97013 90.4348
lradius 33.8441
lwrist -18.9785
lhand -9.71876 22.1394
lfingers 7.12502
lthumb 16.2545 51.478
rfemur -40.8004 9.36159 14.8528
rtibia 2.22639e-014
rfoot -1.60719 -8.1603
rtoes -6.19628
lfemur -2.42755 -6.89697 -28.3848
ltibia 19.1231
lfoot -23.5132 -0.24574
ltoes 1.60849
234
root -1.43417 16.0247 0.461323 445.38 88.2254 428.729
lowerback -12.3434 -2.99809 -6.47505
upperback -3.02363 -3.10295 1.2279
thorax 4.14312 -1.55011 4.45122
lowerneck -1.31845 0.622877 -3.46155
upperneck 15.4673 0.600681 5.55964
head 4.80965 0.548741 2.33602
rclavicle 1.03271e-014 5.96975e-015
rhumerus -66.5459 -39.244 -36.3148
rradius 13.4068
rwrist 44.9276
rhand -15.3454 8.62756
rfingers 7.12502
rthumb 10.8316 -21.0731
lclavicle 1.03271e-014 5.96975e-015
lhumerus -8.16657 9.28865 90.623
lradius 33.1021
lwrist -19.5326
lhand -9.88507 22.0714
lfingers 7.12502
lthumb 16.0943 51.4231
rfemur -40.8118 9.07046 15.3486
rtibia -3.18055e-014
rfoot -1.25651 -8.10634
rtoes -7.39535
lfemur -1.85373 -6.75453 -28.09
ltibia 19.2391
lfoot -23.0692 -1.13271
ltoes 1.43455
235
root -1.22793 16.0062 0.469313 454.282 88.3656 437.639
lowerback -12.1333 -3.00888 -6.42143
upperback -3.28668 -3.14182 1.34281
thorax 3.75925 -1.54751 4.54946
lowerneck -1.48073 0.562261 -3.59845
upperneck 15.8913 0.53853 5.49562
head 4.97053 0.516466 2.34351
rclavicle 4.1869e-014 6.43565e-015
rhumerus -66.5894 -38.6575 -36.6156
rradius 13.5769
rwrist 43.9671
rhand -15.1615 8.11317
rfingers 7.12502
rthumb 11.009 -21.5782
lclavicle 4.1869e-014 6.43565e-015
lhumerus -8.77002 9.81344 90.8334
lradius 32.417
lwrist -20.3853
lhand -9.94029 22.0632
lfingers 7.12502
lthumb 16.0411 51.4191
rfemur -40.5875 8.85428 15.7423
rtibia -2.8625e-014
rfoot -1.03835 -7.99357
rtoes -7.59977
lfemur -1.18312 -6.79689 -27.9328
ltibia 19.4071
lfoot -22.4191 -2.09279
ltoes 2.03627
236
root -1.01915 15.9875 0.475302 461.623 88.4417 444.997
lowerback -12.7336 -3.05038 -6.1312
upperback -3.00725 -3.18582 1.22577
thorax 4.36737 -1.59274 4.22555
lowerneck -1.74984 0.548033 -3.41959
upperneck 15.7805 0.511568 5.46319
head 4.98426 0.510121 2.3022
rclavicle -5.13952e-014 3.83282e-015
rhumerus -67.1742 -39.5685 -35.7757
rradius 13.5004
rwrist 44.7232
rhand -15.0132 8.38054
rfingers 7.12502
rthumb 11.152 -21.3031
lclavicle -5.13952e-014 3.83282e-015
lhumerus -8.66407 10.5343 90.7394
lradius 31.6596
lwrist -21.5046
lhand -9.92671 21.7826
lfingers 7.12502
lthumb 16.0542 51.1375
rfemur -40.2172 8.69918 16.0909
rtibia -9.54166e-015
rfoot -0.654438 -7.65936
rtoes -7.0737
lfemur -0.454215 -6.77785 -27.8241
ltibia 19.5645
lfoot -21.7623 -2.81874
ltoes 1.8484
